<svg width="20" height="17" fill="none" xmlns="http://www.w3.org/2000/svg"><path fill-rule="evenodd" clip-rule="evenodd" d="M14.882 16.323h-4.394a.861.861 0 1 1 0-1.72h2.87a.861.861 0 0 0 .802-.858.862.862 0 0 0-.862-.86H8.807a.86.86 0 0 1-.861-.86.86.86 0 0 1 .86-.859h.543-.001.806a.86.86 0 0 0 .86-.86.86.86 0 0 0-.86-.858H3.875a.86.86 0 0 1-.86-.86.86.86 0 0 1 .86-.858h4.251v-.002h1.665a.86.86 0 0 0 .86-.858.86.86 0 0 0-.86-.858H7.644a.86.86 0 1 1 0-1.718h4.082c.02 0 .04 0 .06.002h1.46a.861.861 0 0 0 .861-.86.861.861 0 0 0-.862-.86h-2.144a.861.861 0 0 1 .063-1.719h7.373l-6.98 7.607L20 16.324h-5.096v-.001h-.022Zm-8.271-1.72c.474 0 .859.384.859.857a.858.858 0 0 1-.86.857H3.46a.858.858 0 0 1-.86-.857c0-.473.386-.857.86-.857H6.61Zm-1.248-3.437a.861.861 0 1 1-.862.86c0-.474.386-.86.862-.86ZM.862 7.73A.861.861 0 1 1 0 8.59c0-.475.386-.86.862-.86ZM4.2 4.294a.861.861 0 1 1-.862.86c0-.475.387-.86.862-.86ZM7.29.857c.474 0 .859.384.859.857a.858.858 0 0 1-.859.857H5.298a.858.858 0 0 1-.86-.857c0-.473.385-.857.86-.857H7.29Z" fill="#293254"/></svg>