<svg width="38" height="30" fill="none" xmlns="http://www.w3.org/2000/svg"><rect x="1" y="16.235" width="5.078" height="5.078" rx="1" fill="#fff" stroke="#757575" stroke-width="1.25"/><rect x="1" y="23.852" width="5.078" height="5.078" rx="1" fill="#fff" stroke="#757575" stroke-width="1.25"/><rect x="8.617" y="8.617" width="5.078" height="5.078" rx="1" fill="#fff" stroke="#757575" stroke-width="1.25"/><rect x="8.617" y="16.235" width="5.078" height="5.078" rx="1" fill="#fff" stroke="#757575" stroke-width="1.25"/><rect x="8.617" y="23.852" width="5.078" height="5.078" rx="1" fill="#fff" stroke="#757575" stroke-width="1.25"/><rect x="16.235" y="8.617" width="5.078" height="5.078" rx="1" fill="#fff" stroke="#757575" stroke-width="1.25"/><rect x="16.235" y="1" width="5.078" height="5.078" rx="1" fill="#fff" stroke="#757575" stroke-width="1.25"/><rect x="16.235" y="16.235" width="5.078" height="5.078" rx="1" fill="#fff" stroke="#757575" stroke-width="1.25"/><rect x="16.235" y="23.852" width="5.078" height="5.078" rx="1" fill="#fff" stroke="#757575" stroke-width="1.25"/><rect x="23.852" y="8.617" width="5.078" height="5.078" rx="1" fill="#fff" stroke="#757575" stroke-width="1.25"/><rect x="23.852" y="16.235" width="5.078" height="5.078" rx="1" fill="#fff" stroke="#757575" stroke-width="1.25"/><rect x="23.852" y="23.852" width="5.078" height="5.078" rx="1" fill="#fff" stroke="#757575" stroke-width="1.25"/><rect x="31.469" y="16.235" width="5.078" height="5.078" rx="1" fill="#fff" stroke="#757575" stroke-width="1.25"/><rect x="31.469" y="23.852" width="5.078" height="5.078" rx="1" fill="#fff" stroke="#757575" stroke-width="1.25"/></svg>