<svg width="37" height="32" fill="none" xmlns="http://www.w3.org/2000/svg"><rect x="1" y="1" width="2" height="2" rx="1" fill="#fff" stroke="#757575" stroke-width="1.5"/><rect x="6.5" y="1" width="2" height="2" rx="1" fill="#fff" stroke="#757575" stroke-width="1.5"/><rect x="12" y="1" width="2" height="2" rx="1" fill="#fff" stroke="#757575" stroke-width="1.5"/><rect x="17.5" y="1" width="2" height="2" rx="1" fill="#fff" stroke="#757575" stroke-width="1.5"/><rect x="23" y="1" width="2" height="2" rx="1" fill="#fff" stroke="#757575" stroke-width="1.5"/><rect x="28.5" y="1" width="2" height="2" rx="1" fill="#fff" stroke="#757575" stroke-width="1.5"/><rect x="34" y="1" width="2" height="2" rx="1" fill="#fff" stroke="#757575" stroke-width="1.5"/><rect x="1" y="6.5" width="2" height="2" rx="1" fill="#fff" stroke="#757575" stroke-width="1.5"/><rect x="6.5" y="6.5" width="2" height="2" rx="1" fill="#fff" stroke="#757575" stroke-width="1.5"/><rect x="12" y="6.5" width="2" height="2" rx="1" fill="#fff" stroke="#757575" stroke-width="1.5"/><rect x="17.5" y="6.5" width="2" height="2" rx="1" fill="#fff" stroke="#757575" stroke-width="1.5"/><rect x="23" y="6.5" width="2" height="2" rx="1" fill="#fff" stroke="#757575" stroke-width="1.5"/><rect x="28.5" y="6.5" width="2" height="2" rx="1" fill="#fff" stroke="#757575" stroke-width="1.5"/><rect x="34" y="6.5" width="2" height="2" rx="1" fill="#fff" stroke="#757575" stroke-width="1.5"/><rect x="1" y="12" width="2" height="2" rx="1" fill="#fff" stroke="#757575" stroke-width="1.5"/><rect x="6.5" y="12" width="2" height="2" rx="1" fill="#fff" stroke="#757575" stroke-width="1.5"/><rect x="12" y="12" width="2" height="2" rx="1" fill="#fff" stroke="#757575" stroke-width="1.5"/><rect x="17.5" y="12" width="2" height="2" rx="1" fill="#fff" stroke="#757575" stroke-width="1.5"/><rect x="23" y="12" width="2" height="2" rx="1" fill="#fff" stroke="#757575" stroke-width="1.5"/><rect x="28.5" y="12" width="2" height="2" rx="1" fill="#fff" stroke="#757575" stroke-width="1.5"/><rect x="34" y="12" width="2" height="2" rx="1" fill="#fff" stroke="#757575" stroke-width="1.5"/><rect x="1" y="17.5" width="2" height="2" rx="1" fill="#fff" stroke="#757575" stroke-width="1.5"/><rect x="6.5" y="17.5" width="2" height="2" rx="1" fill="#fff" stroke="#757575" stroke-width="1.5"/><rect x="12" y="17.5" width="2" height="2" rx="1" fill="#fff" stroke="#757575" stroke-width="1.5"/><rect x="17.5" y="17.5" width="2" height="2" rx="1" fill="#fff" stroke="#757575" stroke-width="1.5"/><rect x="23" y="17.5" width="2" height="2" rx="1" fill="#fff" stroke="#757575" stroke-width="1.5"/><rect x="28.5" y="17.5" width="2" height="2" rx="1" fill="#fff" stroke="#757575" stroke-width="1.5"/><rect x="34" y="17.5" width="2" height="2" rx="1" fill="#fff" stroke="#757575" stroke-width="1.5"/><rect x="1" y="23" width="2" height="2" rx="1" fill="#fff" stroke="#757575" stroke-width="1.5"/><rect x="6.5" y="23" width="2" height="2" rx="1" fill="#fff" stroke="#757575" stroke-width="1.5"/><rect x="12" y="23" width="2" height="2" rx="1" fill="#fff" stroke="#757575" stroke-width="1.5"/><rect x="17.5" y="23" width="2" height="2" rx="1" fill="#fff" stroke="#757575" stroke-width="1.5"/><rect x="23" y="23" width="2" height="2" rx="1" fill="#fff" stroke="#757575" stroke-width="1.5"/><rect x="28.5" y="23" width="2" height="2" rx="1" fill="#fff" stroke="#757575" stroke-width="1.5"/><rect x="34" y="23" width="2" height="2" rx="1" fill="#fff" stroke="#757575" stroke-width="1.5"/><rect x="1" y="28.5" width="2" height="2" rx="1" fill="#fff" stroke="#757575" stroke-width="1.5"/><rect x="6.5" y="28.5" width="2" height="2" rx="1" fill="#fff" stroke="#757575" stroke-width="1.5"/><rect x="12" y="28.5" width="2" height="2" rx="1" fill="#fff" stroke="#757575" stroke-width="1.5"/><rect x="17.5" y="28.5" width="2" height="2" rx="1" fill="#fff" stroke="#757575" stroke-width="1.5"/><rect x="23" y="28.5" width="2" height="2" rx="1" fill="#fff" stroke="#757575" stroke-width="1.5"/><rect x="28.5" y="28.5" width="2" height="2" rx="1" fill="#fff" stroke="#757575" stroke-width="1.5"/><rect x="34" y="28.5" width="2" height="2" rx="1" fill="#fff" stroke="#757575" stroke-width="1.5"/></svg>